<svg width="104" height="76" viewBox="0 0 104 76" fill="none" xmlns="http://www.w3.org/2000/svg">
<rect width="104" height="76" fill="white"/>
<path fill-rule="evenodd" clip-rule="evenodd" d="M16 38C16 25.8497 25.8497 16 38 16H66C78.1503 16 88 25.8497 88 38C88 50.1503 78.1503 60 66 60H38C25.8497 60 16 50.1503 16 38ZM38 24C30.268 24 24 30.268 24 38C24 45.732 30.268 52 38 52H66C73.732 52 80 45.732 80 38C80 30.268 73.732 24 66 24H61.4244C60.5118 24 59.7538 24.658 59.2082 25.3895C58.4789 26.367 57.3134 27 56 27H48C46.6866 27 45.5211 26.367 44.7918 25.3895C44.2462 24.658 43.4882 24 42.5756 24H38ZM38 32C34.6863 32 32 34.6863 32 38C32 41.3137 34.6863 44 38 44C41.3137 44 44 41.3137 44 38C44 34.6863 41.3137 32 38 32ZM66 32C62.6863 32 60 34.6863 60 38C60 41.3137 62.6863 44 66 44C69.3137 44 72 41.3137 72 38C72 34.6863 69.3137 32 66 32Z" fill="black"/>
</svg>
